
        <svg xmlns="http://www.w3.org/2000/svg" xmlns:xlink="http://www.w3.org/1999/xlink" version="1.1" width="3188.087774294671" 
        height="1068.3385579937305" viewBox="0 0 3188.087774294671 1068.3385579937305">
			<rect fill="#040814" width="3188.087774294671" height="1068.3385579937305"/>
			<g transform="scale(9.404388714733543) translate(10, 10)">
				<defs id="SvgjsDefs2152"></defs><g id="SvgjsG2153" featureKey="symbolFeature-0" transform="matrix(1.101183982398777,0,0,1.101183982398777,-25.15244115362977,-2.7524868540147587)" fill="#eeeaf2"><path xmlns="http://www.w3.org/2000/svg" d="M65.532,53.661c2.473-2.341,2.081-5.645-0.869-7.341L59.1,43.118c-2.95-1.697-4.723-5.797-3.941-9.109l6.699-28.398  c0.781-3.312-0.602-4.108-3.073-1.767L24.467,36.339c-2.472,2.341-2.08,5.644,0.87,7.342l5.562,3.2  c2.949,1.698,4.724,5.798,3.943,9.109l-6.701,28.398c-0.78,3.312,0.602,4.107,3.074,1.767L65.532,53.661z"></path></g><g id="SvgjsG2154" featureKey="nameFeature-0" transform="matrix(0.9006984371034981,0,0,0.9006984371034981,63.7925210584438,28.87412716836387)" fill="#ffffff"><path d="M32.813 27.344 c-0.98961 2.3959 -2.3438 4.375 -4.0625 5.9375 c-1.7709 1.6666 -3.8542 2.9688 -6.2501 3.9063 s-5.0781 1.4063 -8.0469 1.4063 l-8.6719 0 l0 -5.9375 l8.5938 0 c1.9791 0 3.776 -0.3125 5.3906 -0.9375 c1.5625 -0.625 2.9166 -1.5104 4.0625 -2.6563 s2.0313 -2.5 2.6563 -4.0625 s0.9375 -3.2813 0.9375 -5.1563 c0 -1.8229 -0.3125 -3.5156 -0.9375 -5.0781 c-0.625 -1.6146 -1.5104 -2.9427 -2.6563 -3.9844 c-1.0416 -1.0938 -2.3958 -1.9791 -4.0624 -2.6563 c-1.6666 -0.625 -3.4635 -0.9375 -5.3906 -0.9375 l-8.5938 0 l0 -5.9375 l8.6719 0 c2.7604 0 5.4166 0.49477 7.9688 1.4844 c2.3959 0.88539 4.5052 2.2135 6.3281 3.9844 c1.7709 1.6146 3.125 3.5938 4.0625 5.9375 c0.98961 2.3959 1.4844 4.8438 1.4844 7.3438 c0 2.7084 -0.49477 5.1563 -1.4844 7.3438 z M47.0938 1.4059999999999988 l27.813 0 l0 5.9375 l-27.813 0 l0 -5.9375 z M47.0938 32.6562 l27.734 0 l0 5.9375 l-27.734 0 l0 -5.9375 z M47.0938 16.875 l25.078 0 l0 5.8594 l-25.078 0 l0 -5.8594 z M89.2656 12.5 c0.9375 -2.2916 2.2916 -4.2447 4.0624 -5.8593 c1.6146 -1.6146 3.698 -2.9167 6.2501 -3.9063 s5.2344 -1.4844 8.0469 -1.4844 l8.6719 0 l0 5.9375 l-8.5938 0 c-2.0313 0 -3.8281 0.33852 -5.3906 1.0156 c-1.6666 0.67711 -3.0208 1.5625 -4.0624 2.6563 c-1.0938 1.0416 -1.9791 2.3958 -2.6563 4.0624 c-0.625 1.5104 -0.9375 3.2031 -0.9375 5.0781 s0.3125 3.5677 0.9375 5.0781 c0.625 1.5625 1.5104 2.9166 2.6563 4.0625 c1.0416 1.0416 2.3958 1.901 4.0624 2.5781 c1.6666 0.625 3.4635 0.9375 5.3906 0.9375 l8.5938 0 l0 5.9375 l-8.6719 0 c-2.9166 0 -5.5729 -0.46875 -7.9688 -1.4063 c-2.5 -1.0416 -4.6094 -2.3698 -6.3281 -3.9844 c-1.7709 -1.6666 -3.125 -3.6458 -4.0625 -5.9374 c-0.98961 -2.3959 -1.4844 -4.8438 -1.4844 -7.3438 c0 -2.6563 0.49477 -5.1302 1.4844 -7.4219 z M146.281 16.875 l0 -15.547 l-6.5625 0 l0 37.344 l6.5625 0 l0 -21.797 z M196.813 27.344 c-0.98961 2.3959 -2.3438 4.375 -4.0625 5.9375 c-1.7709 1.6666 -3.8542 2.9688 -6.2501 3.9063 s-5.0781 1.4063 -8.0469 1.4063 l-8.6719 0 l0 -5.9375 l8.5938 0 c1.9791 0 3.776 -0.3125 5.3906 -0.9375 c1.5625 -0.625 2.9166 -1.5104 4.0625 -2.6563 s2.0313 -2.5 2.6563 -4.0625 s0.9375 -3.2813 0.9375 -5.1563 c0 -1.8229 -0.3125 -3.5156 -0.9375 -5.0781 c-0.625 -1.6146 -1.5104 -2.9427 -2.6563 -3.9844 c-1.0416 -1.0938 -2.3958 -1.9791 -4.0624 -2.6563 c-1.6666 -0.625 -3.4635 -0.9375 -5.3906 -0.9375 l-8.5938 0 l0 -5.9375 l8.6719 0 c2.7604 0 5.4166 0.49477 7.9688 1.4844 c2.3959 0.88539 4.5052 2.2135 6.3281 3.9844 c1.7709 1.6146 3.125 3.5938 4.0625 5.9375 c0.98961 2.3959 1.4844 4.8438 1.4844 7.3438 c0 2.7084 -0.49477 5.1563 -1.4844 7.3438 z M211.0938 1.4059999999999988 l27.813 0 l0 5.9375 l-27.813 0 l0 -5.9375 z M211.0938 32.6562 l27.734 0 l0 5.9375 l-27.734 0 l0 -5.9375 z M211.0938 16.875 l25.078 0 l0 5.8594 l-25.078 0 l0 -5.8594 z M262.484 29.375 l3.5156 -4.6875 l-0.078125 -0.15625 z M282.875 1.4059999999999988 l-7.5 0 l-9.2969 13.359 l-9.2188 -13.359 l-7.7344 0 l13.047 18.281 l-13.516 18.906 l8.3594 0 z M283.344 38.5937 l-10.313 -14.609 l-3.9063 5.2344 l6.5625 9.375 l7.6563 0 z"></path></g>
			</g>
		</svg>
	